<svg width="61" height="61" viewBox="0 0 61 61" fill="none" xmlns="http://www.w3.org/2000/svg">
<g id="icon-park-outline:duck">
<g id="Group">
<path id="Vector" d="M15.5 10.5C11.685 16.1463 8.01625 17.7625 5.5 16.75C6.17875 19.0413 11.0538 22.2188 14.1588 24.0475C15.4963 24.835 15.8875 26.6288 14.9562 27.8713C13.2525 30.1463 10.8937 33.3613 10.5 34.25C1.6925 50.2375 21.1025 56.31 30.5 55.5C58.18 53.115 57.1938 31.5038 53 23C42.935 40.4925 27.3987 30.3938 28 26.75C28.6013 23.1063 32.74 23.8313 34.25 18C36.7663 6.46 20.9675 0.998754 15.5 10.5Z" stroke="black" stroke-width="5" stroke-linecap="round" stroke-linejoin="round"/>
<path id="Vector_2" d="M24.25 39.25C27.375 43.625 36.75 48 44.25 41.75" stroke="black" stroke-width="5" stroke-linecap="round" stroke-linejoin="round"/>
<path id="Vector_3" d="M21.75 18C23.1307 18 24.25 16.8807 24.25 15.5C24.25 14.1193 23.1307 13 21.75 13C20.3693 13 19.25 14.1193 19.25 15.5C19.25 16.8807 20.3693 18 21.75 18Z" fill="black"/>
</g>
</g>
</svg>
